<svg width="29" height="20" viewBox="0 0 29 20" fill="none" xmlns="http://www.w3.org/2000/svg">
<path fill-rule="evenodd" clip-rule="evenodd" d="M20.3333 12.2222C19.689 12.2222 19.1667 11.7248 19.1667 11.1111C19.1667 10.4974 19.689 10 20.3333 10H22.6667C23.311 10 23.8333 10.4974 23.8333 11.1111C23.8333 11.7248 23.311 12.2222 22.6667 12.2222H20.3333ZM9.83333 12.2222C9.18901 12.2222 8.66667 11.7248 8.66667 11.1111C8.66667 10.4974 9.18901 10 9.83333 10H16.8333C17.4777 10 18 10.4974 18 11.1111C18 11.7248 17.4777 12.2222 16.8333 12.2222H9.83333ZM26.1667 5.55556V3.33333C26.1667 2.71969 25.6444 2.22222 25 2.22222H4C3.35567 2.22222 2.83333 2.71969 2.83333 3.33333V5.55556H26.1667ZM26.1667 7.77778H2.83333V16.6667C2.83333 17.2803 3.35567 17.7778 4 17.7778H25C25.6444 17.7778 26.1667 17.2803 26.1667 16.6667V7.77778ZM4 0H25C26.933 0 28.5 1.49239 28.5 3.33333V16.6667C28.5 18.5077 26.933 20 25 20H4C2.06701 20 0.5 18.5077 0.5 16.6667V3.33333C0.5 1.49239 2.06701 0 4 0Z" fill="#758CA3"/>
</svg>
